<?xml version="1.0" standalone="no"?>
<!DOCTYPE svg PUBLIC "-//W3C//DTD SVG 20010904//EN"
 "http://www.w3.org/TR/2001/REC-SVG-20010904/DTD/svg10.dtd">
<svg version="1.0" xmlns="http://www.w3.org/2000/svg"
 width="231.000000pt" height="218.000000pt" viewBox="0 0 231.000000 218.000000"
 preserveAspectRatio="xMidYMid meet">
<metadata>
Created by potrace 1.16, written by Peter Selinger 2001-2019
</metadata>
<g transform="translate(0.000000,218.000000) scale(0.100000,-0.100000)"
fill="#000000" stroke="none">
<path d="M1754 2168 c-3 -4 -2 -8 3 -8 4 0 3 -4 -4 -8 -6 -4 -13 -23 -16 -42
-4 -19 -14 -41 -24 -49 -17 -12 -16 -13 6 -8 l25 6 -27 -25 c-31 -29 -33 -34
-11 -34 8 0 12 5 9 10 -3 6 -2 10 4 10 5 0 13 -5 16 -10 4 -6 12 -7 18 -4 8 5
8 3 0 -7 -7 -7 -13 -21 -13 -32 0 -10 -4 -16 -9 -13 -14 9 -7 -18 11 -45 l16
-24 16 39 c9 21 16 44 16 51 0 6 3 15 8 19 4 4 7 11 8 14 0 4 4 23 9 42 9 36
11 46 13 68 1 7 6 11 11 8 4 -3 6 5 4 18 -4 17 0 26 14 29 10 3 -8 5 -40 4
-32 0 -60 -4 -63 -9z"/>
<path d="M1936 2163 c-4 -9 -2 -20 5 -23 14 -9 14 -21 -1 -30 -8 -5 -2 -10 14
-14 15 -4 24 -11 21 -17 -4 -5 -15 -7 -26 -4 -13 5 -19 2 -19 -10 0 -9 7 -15
17 -13 14 3 17 -6 18 -52 1 -30 3 -60 7 -65 3 -6 4 -23 2 -40 -1 -16 -5 -62
-8 -102 -2 -39 -7 -80 -10 -90 -4 -12 3 -28 19 -45 14 -15 21 -30 15 -33 -6
-4 -4 -17 5 -36 9 -16 13 -34 10 -39 -3 -6 1 -10 9 -10 22 0 20 -30 -1 -31
-14 0 -15 -2 -3 -6 22 -9 42 -32 36 -42 -3 -5 -17 -11 -31 -13 -14 -3 -22 -1
-18 5 7 12 -16 27 -42 27 -19 -1 -19 -1 -2 -14 16 -12 16 -15 3 -29 -14 -13
-14 -16 0 -21 13 -5 14 -9 4 -21 -8 -10 -9 -15 -2 -15 6 0 9 -6 6 -13 -2 -7 2
-26 10 -42 8 -16 13 -32 10 -37 -3 -4 0 -8 5 -8 6 0 11 -7 11 -15 0 -8 5 -15
12 -15 6 0 3 -10 -8 -21 -19 -22 -19 -22 5 -14 16 5 21 4 17 -4 -5 -7 -1 -8
10 -4 12 5 15 3 9 -6 -6 -10 -2 -11 16 -7 19 6 21 5 8 -3 -20 -13 -66 -9 -98
8 -15 9 -21 9 -16 2 3 -6 -4 -20 -17 -31 -16 -14 -18 -18 -5 -14 12 4 17 1 17
-11 0 -14 -6 -16 -30 -11 -38 7 -39 -1 -2 -15 24 -9 25 -11 9 -20 -9 -6 -15
-14 -12 -20 4 -5 -2 -9 -12 -9 -10 0 -25 -5 -33 -11 -13 -10 -13 -10 1 -6 9 3
16 -1 16 -9 0 -12 -3 -12 -21 0 -17 10 -21 25 -22 65 -1 29 -7 58 -14 64 -10
9 -11 9 -5 -3 6 -10 1 -8 -13 4 -12 10 -19 22 -17 26 3 4 -2 11 -11 14 -8 3
-12 10 -9 16 3 6 -1 13 -10 16 -10 4 -15 14 -12 25 3 10 -2 19 -12 22 -26 6
-39 -3 -34 -24 6 -23 -13 -49 -37 -49 -10 0 -27 11 -38 25 -24 30 -32 31 -32
4 0 -16 -4 -19 -21 -14 -15 5 -19 4 -14 -5 5 -8 0 -7 -14 2 -14 9 -20 22 -19
40 1 16 6 28 11 28 5 0 3 7 -4 16 -8 9 -12 27 -11 40 7 52 -18 131 -54 168
-40 42 -76 50 -182 44 -86 -5 -133 -24 -174 -72 -23 -26 -27 -40 -28 -94 0
-66 17 -113 47 -132 17 -10 17 -10 -1 -8 -10 2 -21 -3 -24 -11 -3 -10 0 -12
13 -7 15 5 16 4 5 -9 -10 -12 -10 -15 3 -15 8 0 17 9 20 21 3 12 10 18 16 14
8 -4 6 -11 -4 -21 -8 -9 -13 -19 -10 -24 3 -4 -5 -6 -17 -4 -21 4 -21 4 -3 -5
15 -7 24 -4 37 13 21 25 22 20 7 -22 -6 -18 -14 -30 -19 -27 -4 2 -15 -4 -24
-14 -17 -18 -16 -19 18 -18 20 1 36 4 36 8 0 4 7 9 15 13 13 5 13 2 -1 -19
-13 -20 -20 -23 -34 -15 -15 8 -22 5 -33 -10 -12 -17 -16 -18 -20 -6 -4 9 -14
12 -26 9 -13 -3 -21 -1 -21 8 0 7 -3 10 -6 7 -3 -4 -1 -15 4 -25 6 -11 7 -25
3 -32 -6 -8 -10 -2 -14 18 -8 36 -22 40 -38 9 -10 -18 -9 -20 5 -15 9 4 16 1
16 -4 0 -7 -11 -9 -25 -7 -13 3 -26 0 -29 -6 -3 -7 -5 -6 -5 2 -1 7 -7 10 -13
7 -7 -4 -4 2 8 12 19 16 39 53 29 53 -2 0 -17 -14 -33 -31 l-30 -32 5 27 c4
20 1 26 -11 26 -11 0 -15 -5 -10 -12 4 -7 -2 -5 -13 4 -11 10 -27 18 -36 18
-9 0 -21 8 -27 18 -9 14 -10 11 -5 -15 5 -24 2 -34 -12 -43 -16 -10 -15 -10 5
-4 23 6 24 6 5 -14 -18 -19 -18 -19 -52 0 -33 19 -34 19 -28 -1 5 -19 3 -19
-18 -5 -26 17 -39 51 -21 57 6 2 4 3 -4 2 -8 0 -14 -6 -13 -12 1 -6 -5 -17
-14 -25 -10 -8 -14 -8 -10 -1 4 6 2 15 -4 19 -7 4 -9 3 -5 -4 3 -6 -2 -15 -11
-21 -14 -8 -14 -10 -3 -11 9 0 5 -6 -10 -17 -14 -10 -28 -17 -32 -15 -5 1 -8
-6 -8 -16 0 -10 -5 -23 -11 -29 -7 -7 -7 -13 0 -17 7 -4 6 -16 -1 -36 -7 -23
-7 -34 2 -45 11 -14 7 -19 -12 -16 -5 0 -8 -3 -8 -9 0 -13 6 -13 31 1 19 10
20 9 9 -12 -11 -19 -10 -21 4 -16 10 4 14 3 11 -2 -3 -5 -1 -12 5 -16 13 -8
13 -25 -1 -25 -5 0 -7 6 -3 13 4 7 3 9 -2 4 -5 -5 -9 -14 -9 -20 -1 -7 -7 -11
-14 -9 -7 1 -19 -5 -27 -15 -13 -17 -13 -17 -14 4 0 12 5 25 10 28 6 4 7 11 4
17 -4 7 -2 8 4 4 7 -4 12 -1 12 9 0 11 -5 15 -16 11 -8 -3 -12 -2 -9 4 3 6 1
10 -6 10 -7 0 -5 8 6 20 10 11 13 20 7 20 -6 0 -14 -5 -17 -10 -5 -8 -11 -7
-21 1 -7 6 -11 15 -8 20 3 5 -3 6 -12 2 -10 -4 -13 -8 -7 -10 6 -2 9 -16 7
-29 -3 -15 -1 -23 5 -20 5 4 12 3 14 -1 3 -5 -14 -9 -36 -10 -31 -2 -38 0 -27
7 13 9 12 13 -8 30 -13 10 -29 17 -37 14 -17 -7 -28 -34 -14 -34 6 0 9 -9 6
-20 -3 -11 -1 -20 5 -20 5 0 7 -4 3 -9 -3 -5 -1 -12 5 -16 6 -4 7 -11 4 -17
-4 -6 1 -17 11 -25 11 -7 13 -13 6 -13 -7 0 -9 -4 -6 -10 8 -13 -1 -13 -26 0
-13 7 -19 7 -19 0 0 -5 7 -10 16 -10 8 0 13 -4 9 -9 -3 -5 7 -11 22 -13 20 -2
27 -8 25 -20 -2 -10 3 -18 9 -18 7 0 3 -9 -9 -20 -22 -21 -67 -27 -77 -10 -6
10 13 14 45 11 13 -2 13 -1 0 8 -12 9 -13 11 -1 11 8 0 11 3 8 7 -4 3 -22 -2
-41 -12 l-34 -18 26 -24 c14 -12 19 -23 12 -23 -7 0 -10 -7 -6 -16 3 -9 2 -12
-4 -9 -6 4 -9 14 -8 23 2 9 -5 18 -15 20 -16 3 -17 1 -8 -16 8 -15 8 -22 -2
-25 -7 -3 -5 -6 6 -6 9 -1 16 -6 15 -13 -2 -7 8 -12 24 -12 23 1 25 -1 18 -21
-10 -26 -2 -104 13 -122 6 -9 6 -13 -2 -13 -7 0 -9 -4 -6 -10 3 -5 0 -10 -7
-10 -11 0 -11 -2 0 -9 10 -6 11 -13 1 -34 -9 -21 -9 -33 -1 -53 8 -16 9 -31 3
-43 -7 -13 -4 -24 15 -46 13 -15 24 -39 24 -53 0 -17 4 -22 14 -19 10 4 17 -4
21 -24 4 -17 13 -33 20 -35 7 -3 16 -16 19 -30 l6 -24 600 0 c368 0 600 4 600
9 0 6 -4 13 -10 16 -5 3 -10 12 -9 18 0 9 2 9 5 1 7 -16 44 -5 44 12 0 17 21
18 44 1 22 -16 12 -44 -17 -50 -12 -2 28 -5 90 -6 98 -1 112 1 117 17 3 9 20
23 37 31 20 9 28 18 24 29 -4 12 -3 13 9 3 17 -14 36 -7 36 14 0 8 -6 12 -14
9 -10 -4 -13 0 -9 14 5 20 -23 84 -59 134 -12 18 -29 29 -46 29 -24 2 -24 2
-4 6 12 2 22 7 22 10 0 2 -17 29 -37 58 -35 50 -114 115 -141 115 -6 0 -12 4
-12 8 0 5 -16 27 -36 50 -19 23 -31 42 -25 42 6 0 16 -9 23 -20 16 -24 30 -26
21 -3 -5 13 0 12 28 -7 43 -30 80 -70 115 -125 15 -24 31 -42 36 -39 5 3 7 2
6 -3 -5 -15 39 -63 57 -63 13 0 15 -3 7 -13 -9 -10 -1 -34 29 -95 23 -45 46
-82 51 -82 5 0 6 -5 3 -10 -3 -6 0 -13 8 -16 9 -3 13 -13 10 -25 -3 -10 -1
-19 5 -19 6 0 12 -10 14 -22 3 -21 8 -23 63 -23 l60 0 3 62 c3 59 2 63 -19 63
-22 0 -22 -1 -4 -13 11 -9 14 -16 7 -21 -6 -3 -18 2 -28 11 -12 13 -19 14 -22
5 -9 -28 -32 -12 -32 23 0 24 5 35 15 35 8 0 15 -5 15 -11 0 -5 5 -7 11 -3 8
5 8 9 -1 14 -8 5 -9 9 -1 11 12 5 3 49 -10 49 -5 0 -8 -3 -7 -7 2 -5 -1 -8 -7
-8 -5 0 -9 11 -7 25 l2 25 -17 -27 c-21 -33 -34 -35 -58 -8 -10 11 -26 22 -36
25 -23 8 -25 25 -4 25 8 0 15 -5 15 -11 0 -8 4 -8 13 -1 7 6 25 9 40 6 22 -3
27 -1 27 16 0 11 4 20 10 20 5 0 7 -6 4 -14 -7 -17 25 -36 52 -32 10 2 13 1 7
-1 -9 -3 -10 -10 -3 -23 6 -11 9 -23 8 -27 -4 -14 13 -53 23 -53 5 0 7 50 5
123 -6 156 -6 68 0 1050 l5 848 -28 -3 c-20 -2 -29 -9 -31 -24 -2 -16 -8 -20
-21 -17 -13 3 -17 11 -14 24 4 14 0 19 -16 19 -11 0 -21 -3 -20 -7 1 -5 -2
-18 -6 -31 -6 -19 -12 -22 -35 -17 -16 3 -31 2 -34 -3 -7 -11 -106 -3 -123 10
-8 6 -13 3 -16 -9 -3 -10 -5 -1 -6 20 -1 38 -14 49 -25 20z m-1276 -1513 c-12
-7 -12 -10 -1 -10 8 0 11 -6 7 -17 -3 -10 3 -6 15 10 23 30 41 34 59 12 11
-13 10 -14 -5 -9 -13 5 -16 4 -11 -4 4 -7 19 -12 34 -13 l27 -1 -29 -8 c-16
-5 -32 -7 -36 -5 -3 2 -6 -8 -6 -21 0 -21 4 -24 23 -19 21 5 22 4 11 -15 -7
-11 -19 -20 -26 -20 -8 0 -10 5 -6 12 5 8 2 9 -12 3 -39 -16 -67 -19 -59 -5 5
9 4 11 -4 6 -6 -4 -9 -12 -6 -17 3 -5 -1 -6 -10 -3 -9 4 -14 13 -11 20 4 10
-4 9 -29 -4 -18 -9 -32 -21 -32 -26 1 -5 -4 -11 -12 -14 -10 -3 -12 0 -8 11 3
9 1 17 -6 20 -7 2 -4 16 11 40 l22 38 -23 -13 c-12 -6 -32 -12 -45 -13 -20 -1
-21 1 -7 11 12 9 13 13 3 17 -10 3 -10 7 -1 17 10 11 15 11 28 0 11 -9 15 -9
15 -1 0 7 4 10 10 6 5 -3 18 0 29 7 15 9 25 9 46 0 14 -7 24 -8 21 -3 -6 9 8
19 29 20 6 0 3 -4 -5 -9z m914 -29 c34 -29 46 -76 46 -179 0 -87 -3 -105 -26
-148 -50 -95 -82 -115 -187 -115 -60 0 -82 4 -122 26 -44 23 -104 79 -105 97
0 10 -46 110 -82 181 -31 61 -31 78 3 121 27 34 75 34 164 2 61 -22 70 -23
101 -10 18 8 42 14 53 14 10 0 38 9 61 19 45 20 62 19 94 -8z"/>
<path d="M164 1993 c36 -55 77 -136 71 -141 -3 -3 -57 -6 -120 -6 l-115 -1 4
-755 c2 -415 4 -769 5 -786 2 -46 27 -52 35 -9 7 38 29 55 57 48 11 -3 19 0
19 6 0 6 -7 11 -15 11 -20 0 -19 27 2 38 10 6 14 16 10 26 -4 9 -3 16 2 16 7
0 17 38 25 92 1 3 4 10 8 14 4 4 3 13 -3 21 -9 10 -8 13 5 13 9 0 17 9 17 20
2 28 3 33 12 48 5 7 6 21 2 31 -4 13 2 26 15 39 12 11 24 38 27 61 3 23 10 41
16 41 7 0 7 4 -1 12 -14 14 -16 32 -3 23 6 -3 15 4 21 15 8 15 8 20 -2 20 -7
1 -4 6 7 13 11 7 21 23 22 37 1 14 4 37 7 52 6 25 3 28 -29 34 l-36 6 23 16
c13 9 26 20 30 26 7 11 -9 26 -27 26 -5 0 -3 -5 5 -10 9 -6 10 -10 3 -10 -24
0 -24 20 1 29 23 9 29 31 13 47 -4 4 1 12 10 19 11 8 13 14 5 19 -7 4 -12 2
-12 -3 0 -6 -10 -11 -22 -11 -21 0 -21 0 -2 16 13 11 14 14 3 11 -9 -3 -16 1
-16 9 0 9 6 13 14 10 8 -3 11 -1 8 4 -3 5 -2 26 4 45 6 21 6 37 0 41 -5 3 -9
14 -9 25 0 10 -6 19 -12 19 -9 0 -9 3 1 9 8 5 14 22 15 37 1 16 5 35 9 42 5 6
5 12 2 12 -4 0 1 7 10 16 9 10 15 24 12 33 -2 9 2 22 10 29 7 7 13 23 13 35 0
28 15 51 28 43 5 -3 13 2 16 11 6 15 -8 32 -26 33 -5 0 -8 7 -8 15 0 8 -6 15
-12 15 -8 0 -5 7 6 15 12 9 15 15 7 15 -9 0 -12 9 -9 24 3 17 1 23 -8 19 -25
-9 -36 8 -18 28 16 17 16 19 1 19 -10 0 -17 5 -17 10 0 6 5 10 11 10 6 0 9 6
6 13 -2 6 3 17 11 23 13 10 13 14 -1 35 -10 13 -17 18 -17 11 0 -18 -24 -15
-43 6 -59 64 -60 64 -46 74 11 8 10 9 -3 4 -11 -3 -18 0 -18 8 0 12 -20 26
-36 26 -2 0 7 -17 20 -37z"/>
<path d="M1443 1727 c-3 -6 -1 -7 5 -3 23 14 12 -12 -13 -30 -25 -19 -34 -58
-15 -69 6 -4 26 5 45 19 35 27 73 33 104 16 10 -5 42 -12 72 -15 29 -4 59 -11
66 -17 17 -14 17 3 0 27 -9 12 -16 14 -21 7 -7 -12 -64 15 -101 48 -22 20
-132 33 -142 17z"/>
<path d="M726 1647 c-31 -20 -50 -40 -76 -82 l-24 -40 27 26 c18 17 43 28 73
33 77 10 102 7 155 -19 27 -14 54 -23 59 -20 16 10 12 55 -5 55 -8 0 -15 5
-15 10 0 6 -11 10 -24 10 -16 0 -27 7 -31 20 -3 11 -11 20 -16 20 -6 0 -7 -5
-3 -12 5 -8 2 -9 -12 -3 -33 13 -88 15 -108 2z"/>
</g>
</svg>
